<svg width="512" height="512" viewBox="0 0 512 512" fill="none" xmlns="http://www.w3.org/2000/svg">
  <path d="M237 78H194C128 78 78 132 78 206V306C78 380 128 434 194 434H237V392H204C153 392 119 356 119 304V208C119 156 153 120 204 120H237V78Z" fill="#FFC61A"/>
  <path d="M276 78H318C384 78 434 132 434 206V306C434 342 421 373 398 396L368 366C384 351 393 329 393 304V208C393 156 359 120 308 120H276V78Z" fill="#FFC61A"/>
  <path d="M276 392H312C327 392 341 389 353 383L383 413C364 427 342 434 318 434H276V392Z" fill="#FFC61A"/>
  <path d="M313 335L357 291L461 395C478 412 478 440 461 457C444 474 416 474 399 457L313 371V335Z" fill="#FFC61A"/>
  <path d="M256 343L199 291C164 259 151 239 151 207C151 176 174 153 205 153C229 153 245 166 256 184C267 166 283 153 307 153C338 153 361 176 361 207C361 239 348 259 313 291L256 343Z" fill="#F51D2D"/>
</svg>
